<svg style="background-color: white;" viewBox="0 0 720 240" xmlns="http://www.w3.org/2000/svg" font-size="14">
<rect width="100%" height="100%" fill="white" /><defs>
<marker id="ah" markerWidth="9" markerHeight="9" refX="6" refY="3" orient="auto">
<path d="M0,0 L6,3 L0,6 Z" fill="#1f2937"/></marker>
<marker id="ahr" markerWidth="9" markerHeight="9" refX="6" refY="3" orient="auto">
<path d="M0,0 L6,3 L0,6 Z" fill="#c0392b"/></marker>
<marker id="ahm" markerWidth="9" markerHeight="9" refX="6" refY="3" orient="auto">
<path d="M0,0 L6,3 L0,6 Z" fill="#94a3b8"/></marker>
</defs>
<text x="190" y="26" text-anchor="middle" font-family="ui-sans-serif,system-ui,-apple-system,sans-serif" fill="#1f2937" font-size="14" font-weight="600">cost 2 — the good split</text><path d="M70.0,150 C70.0,92.0 230.0,92.0 230.0,150" fill="none" stroke="#0d9488" stroke-width="1.8" marker-end="url(#ah)"/><path d="M150.0,150 C150.0,92.0 310.0,92.0 310.0,150" fill="none" stroke="#0d9488" stroke-width="1.8" marker-end="url(#ah)"/><rect x="50.0" y="150" width="40" height="32" rx="7" fill="#ffffff" stroke="#cbd5e1" stroke-width="1.5"/><text x="70.0" y="171.0" text-anchor="middle" font-family="ui-monospace,SFMono-Regular,Menlo,Consolas,monospace" fill="#1f2937">1</text><rect x="130.0" y="150" width="40" height="32" rx="7" fill="#ffffff" stroke="#cbd5e1" stroke-width="1.5"/><text x="150.0" y="171.0" text-anchor="middle" font-family="ui-monospace,SFMono-Regular,Menlo,Consolas,monospace" fill="#1f2937">2</text><rect x="210.0" y="150" width="40" height="32" rx="7" fill="#ffffff" stroke="#cbd5e1" stroke-width="1.5"/><text x="230.0" y="171.0" text-anchor="middle" font-family="ui-monospace,SFMono-Regular,Menlo,Consolas,monospace" fill="#1f2937">3</text><rect x="290.0" y="150" width="40" height="32" rx="7" fill="#ffffff" stroke="#cbd5e1" stroke-width="1.5"/><text x="310.0" y="171.0" text-anchor="middle" font-family="ui-monospace,SFMono-Regular,Menlo,Consolas,monospace" fill="#1f2937">4</text><text x="190" y="208" text-anchor="middle" font-family="ui-sans-serif,system-ui,-apple-system,sans-serif" fill="#1f2937" font-size="13">(1∥2) then (3∥4): nothing blocks the cut</text><text x="550" y="26" text-anchor="middle" font-family="ui-sans-serif,system-ui,-apple-system,sans-serif" fill="#1f2937" font-size="14" font-weight="600">cost 3 — the bad split</text><path d="M430.0,150 C430.0,108.0 510.0,108.0 510.0,150" fill="none" stroke="#1f2937" stroke-width="1.8" marker-end="url(#ah)"/><path d="M430.0,150 C430.0,76.0 670.0,76.0 670.0,150" fill="none" stroke="#c0392b" stroke-width="1.8" marker-end="url(#ahr)"/><path d="M590.0,150 C590.0,108.0 670.0,108.0 670.0,150" fill="none" stroke="#1f2937" stroke-width="1.8" marker-end="url(#ah)"/><rect x="410.0" y="150" width="40" height="32" rx="7" fill="#ffffff" stroke="#cbd5e1" stroke-width="1.5"/><text x="430.0" y="171.0" text-anchor="middle" font-family="ui-monospace,SFMono-Regular,Menlo,Consolas,monospace" fill="#1f2937">1</text><rect x="490.0" y="150" width="40" height="32" rx="7" fill="#ffffff" stroke="#cbd5e1" stroke-width="1.5"/><text x="510.0" y="171.0" text-anchor="middle" font-family="ui-monospace,SFMono-Regular,Menlo,Consolas,monospace" fill="#1f2937">2</text><rect x="570.0" y="150" width="40" height="32" rx="7" fill="#ffffff" stroke="#cbd5e1" stroke-width="1.5"/><text x="590.0" y="171.0" text-anchor="middle" font-family="ui-monospace,SFMono-Regular,Menlo,Consolas,monospace" fill="#1f2937">3</text><rect x="650.0" y="150" width="40" height="32" rx="7" fill="#ffffff" stroke="#cbd5e1" stroke-width="1.5"/><text x="670.0" y="171.0" text-anchor="middle" font-family="ui-monospace,SFMono-Regular,Menlo,Consolas,monospace" fill="#1f2937">4</text><text x="550" y="208" text-anchor="middle" font-family="ui-sans-serif,system-ui,-apple-system,sans-serif" fill="#c0392b" font-size="13">the long 1→4 arrow spans everything</text></svg>